<svg id="visual" viewBox="0 0 1800 1200" width="1800" height="1200" xmlns="http://www.w3.org/2000/svg" xmlns:xlink="http://www.w3.org/1999/xlink" version="1.1"><rect x="0" y="0" width="1800" height="1200" fill="#bee1b2"></rect><path d="M0 795L42.8 802C85.7 809 171.3 823 257 837.2C342.7 851.3 428.3 865.7 514 859.3C599.7 853 685.3 826 771.2 822.2C857 818.3 943 837.7 1028.8 827.5C1114.7 817.3 1200.3 777.7 1286 767C1371.7 756.3 1457.3 774.7 1543 771C1628.7 767.3 1714.3 741.7 1757.2 728.8L1800 716L1800 0L1757.2 0C1714.3 0 1628.7 0 1543 0C1457.3 0 1371.7 0 1286 0C1200.3 0 1114.7 0 1028.8 0C943 0 857 0 771.2 0C685.3 0 599.7 0 514 0C428.3 0 342.7 0 257 0C171.3 0 85.7 0 42.8 0L0 0Z" fill="#4d7542"></path><path d="M0 576L42.8 577.8C85.7 579.7 171.3 583.3 257 601.7C342.7 620 428.3 653 514 659.2C599.7 665.3 685.3 644.7 771.2 637.3C857 630 943 636 1028.8 645.3C1114.7 654.7 1200.3 667.3 1286 660.7C1371.7 654 1457.3 628 1543 627C1628.7 626 1714.3 650 1757.2 662L1800 674L1800 0L1757.2 0C1714.3 0 1628.7 0 1543 0C1457.3 0 1371.7 0 1286 0C1200.3 0 1114.7 0 1028.8 0C943 0 857 0 771.2 0C685.3 0 599.7 0 514 0C428.3 0 342.7 0 257 0C171.3 0 85.7 0 42.8 0L0 0Z" fill="#496f3e"></path><path d="M0 585L42.8 584.5C85.7 584 171.3 583 257 575.2C342.7 567.3 428.3 552.7 514 533C599.7 513.3 685.3 488.7 771.2 483.2C857 477.7 943 491.3 1028.8 495.3C1114.7 499.3 1200.3 493.7 1286 477.8C1371.7 462 1457.3 436 1543 450.2C1628.7 464.3 1714.3 518.7 1757.2 545.8L1800 573L1800 0L1757.2 0C1714.3 0 1628.7 0 1543 0C1457.3 0 1371.7 0 1286 0C1200.3 0 1114.7 0 1028.8 0C943 0 857 0 771.2 0C685.3 0 599.7 0 514 0C428.3 0 342.7 0 257 0C171.3 0 85.7 0 42.8 0L0 0Z" fill="#45693b"></path><path d="M0 351L42.8 345C85.7 339 171.3 327 257 330.3C342.7 333.7 428.3 352.3 514 362.5C599.7 372.7 685.3 374.3 771.2 378.3C857 382.3 943 388.7 1028.8 395.3C1114.7 402 1200.3 409 1286 408.8C1371.7 408.7 1457.3 401.3 1543 383.5C1628.7 365.7 1714.3 337.3 1757.2 323.2L1800 309L1800 0L1757.2 0C1714.3 0 1628.7 0 1543 0C1457.3 0 1371.7 0 1286 0C1200.3 0 1114.7 0 1028.8 0C943 0 857 0 771.2 0C685.3 0 599.7 0 514 0C428.3 0 342.7 0 257 0C171.3 0 85.7 0 42.8 0L0 0Z" fill="#416337"></path><path d="M0 198L42.8 198.3C85.7 198.7 171.3 199.3 257 191.8C342.7 184.3 428.3 168.7 514 172C599.7 175.3 685.3 197.7 771.2 206.5C857 215.3 943 210.7 1028.8 210.5C1114.7 210.3 1200.3 214.7 1286 215.5C1371.7 216.3 1457.3 213.7 1543 207C1628.7 200.3 1714.3 189.7 1757.2 184.3L1800 179L1800 0L1757.2 0C1714.3 0 1628.7 0 1543 0C1457.3 0 1371.7 0 1286 0C1200.3 0 1114.7 0 1028.8 0C943 0 857 0 771.2 0C685.3 0 599.7 0 514 0C428.3 0 342.7 0 257 0C171.3 0 85.7 0 42.8 0L0 0Z" fill="#3d5e34"></path></svg>