<svg id="visual" viewBox="0 0 960 540" width="960" height="540" xmlns="http://www.w3.org/2000/svg" xmlns:xlink="http://www.w3.org/1999/xlink" version="1.1"><path d="M0 357L22.8 360.2C45.7 363.3 91.3 369.7 137 376C182.7 382.3 228.3 388.7 274 385.8C319.7 383 365.3 371 411.2 369.3C457 367.7 503 376.3 548.8 371.7C594.7 367 640.3 349 686 344.2C731.7 339.3 777.3 347.7 823 346C868.7 344.3 914.3 332.7 937.2 326.8L960 321L960 0L937.2 0C914.3 0 868.7 0 823 0C777.3 0 731.7 0 686 0C640.3 0 594.7 0 548.8 0C503 0 457 0 411.2 0C365.3 0 319.7 0 274 0C228.3 0 182.7 0 137 0C91.3 0 45.7 0 22.8 0L0 0Z" fill="#4d7542"></path><path d="M0 258L22.8 259C45.7 260 91.3 262 137 270.3C182.7 278.7 228.3 293.3 274 296C319.7 298.7 365.3 289.3 411.2 286.2C457 283 503 286 548.8 290.2C594.7 294.3 640.3 299.7 686 296.7C731.7 293.7 777.3 282.3 823 282C868.7 281.7 914.3 292.3 937.2 297.7L960 303L960 0L937.2 0C914.3 0 868.7 0 823 0C777.3 0 731.7 0 686 0C640.3 0 594.7 0 548.8 0C503 0 457 0 411.2 0C365.3 0 319.7 0 274 0C228.3 0 182.7 0 137 0C91.3 0 45.7 0 22.8 0L0 0Z" fill="#496f3e"></path><path d="M0 263L22.8 262.7C45.7 262.3 91.3 261.7 137 258C182.7 254.3 228.3 247.7 274 238.8C319.7 230 365.3 219 411.2 216.5C457 214 503 220 548.8 221.8C594.7 223.7 640.3 221.3 686 214.3C731.7 207.3 777.3 195.7 823 202C868.7 208.3 914.3 232.7 937.2 244.8L960 257L960 0L937.2 0C914.3 0 868.7 0 823 0C777.3 0 731.7 0 686 0C640.3 0 594.7 0 548.8 0C503 0 457 0 411.2 0C365.3 0 319.7 0 274 0C228.3 0 182.7 0 137 0C91.3 0 45.7 0 22.8 0L0 0Z" fill="#45693b"></path><path d="M0 157L22.8 154.3C45.7 151.7 91.3 146.3 137 147.8C182.7 149.3 228.3 157.7 274 162.3C319.7 167 365.3 168 411.2 169.8C457 171.7 503 174.3 548.8 177.3C594.7 180.3 640.3 183.7 686 183.7C731.7 183.7 777.3 180.3 823 172.2C868.7 164 914.3 151 937.2 144.5L960 138L960 0L937.2 0C914.3 0 868.7 0 823 0C777.3 0 731.7 0 686 0C640.3 0 594.7 0 548.8 0C503 0 457 0 411.2 0C365.3 0 319.7 0 274 0C228.3 0 182.7 0 137 0C91.3 0 45.7 0 22.8 0L0 0Z" fill="#416337"></path><path d="M0 88L22.8 88.2C45.7 88.3 91.3 88.7 137 85.3C182.7 82 228.3 75 274 76.5C319.7 78 365.3 88 411.2 92C457 96 503 94 548.8 94C594.7 94 640.3 96 686 96.3C731.7 96.7 777.3 95.3 823 92.3C868.7 89.3 914.3 84.7 937.2 82.3L960 80L960 0L937.2 0C914.3 0 868.7 0 823 0C777.3 0 731.7 0 686 0C640.3 0 594.7 0 548.8 0C503 0 457 0 411.2 0C365.3 0 319.7 0 274 0C228.3 0 182.7 0 137 0C91.3 0 45.7 0 22.8 0L0 0Z" fill="#3d5e34"></path></svg>