<svg id="visual" viewBox="0 0 900 600" width="900" height="600" xmlns="http://www.w3.org/2000/svg" xmlns:xlink="http://www.w3.org/1999/xlink" version="1.1"><rect x="0" y="0" width="900" height="600" fill="#bee1b2"></rect><path d="M0 397L21.5 400.5C43 404 86 411 128.8 418C171.7 425 214.3 432 257.2 428.8C300 425.7 343 412.3 385.8 410.5C428.7 408.7 471.3 418.3 514.2 413.2C557 408 600 388 642.8 382.7C685.7 377.3 728.3 386.7 771.2 384.8C814 383 857 370 878.5 363.5L900 357L900 0L878.5 0C857 0 814 0 771.2 0C728.3 0 685.7 0 642.8 0C600 0 557 0 514.2 0C471.3 0 428.7 0 385.8 0C343 0 300 0 257.2 0C214.3 0 171.7 0 128.8 0C86 0 43 0 21.5 0L0 0Z" fill="#4d7542"></path><path d="M0 287L21.5 288C43 289 86 291 128.8 300.2C171.7 309.3 214.3 325.7 257.2 328.8C300 332 343 322 385.8 318.5C428.7 315 471.3 318 514.2 322.5C557 327 600 333 642.8 329.7C685.7 326.3 728.3 313.7 771.2 313.3C814 313 857 325 878.5 331L900 337L900 0L878.5 0C857 0 814 0 771.2 0C728.3 0 685.7 0 642.8 0C600 0 557 0 514.2 0C471.3 0 428.7 0 385.8 0C343 0 300 0 257.2 0C214.3 0 171.7 0 128.8 0C86 0 43 0 21.5 0L0 0Z" fill="#496f3e"></path><path d="M0 292L21.5 291.7C43 291.3 86 290.7 128.8 286.7C171.7 282.7 214.3 275.3 257.2 265.7C300 256 343 244 385.8 241.3C428.7 238.7 471.3 245.3 514.2 247.2C557 249 600 246 642.8 238C685.7 230 728.3 217 771.2 224.2C814 231.3 857 258.7 878.5 272.3L900 286L900 0L878.5 0C857 0 814 0 771.2 0C728.3 0 685.7 0 642.8 0C600 0 557 0 514.2 0C471.3 0 428.7 0 385.8 0C343 0 300 0 257.2 0C214.3 0 171.7 0 128.8 0C86 0 43 0 21.5 0L0 0Z" fill="#45693b"></path><path d="M0 175L21.5 172C43 169 86 163 128.8 164.7C171.7 166.3 214.3 175.7 257.2 180.7C300 185.7 343 186.3 385.8 188.3C428.7 190.3 471.3 193.7 514.2 197C557 200.3 600 203.7 642.8 203.7C685.7 203.7 728.3 200.3 771.2 191.5C814 182.7 857 168.3 878.5 161.2L900 154L900 0L878.5 0C857 0 814 0 771.2 0C728.3 0 685.7 0 642.8 0C600 0 557 0 514.2 0C471.3 0 428.7 0 385.8 0C343 0 300 0 257.2 0C214.3 0 171.7 0 128.8 0C86 0 43 0 21.5 0L0 0Z" fill="#416337"></path><path d="M0 98L21.5 98.2C43 98.3 86 98.7 128.8 95C171.7 91.3 214.3 83.7 257.2 85.3C300 87 343 98 385.8 102.5C428.7 107 471.3 105 514.2 105C557 105 600 107 642.8 107.3C685.7 107.7 728.3 106.3 771.2 103C814 99.7 857 94.3 878.5 91.7L900 89L900 0L878.5 0C857 0 814 0 771.2 0C728.3 0 685.7 0 642.8 0C600 0 557 0 514.2 0C471.3 0 428.7 0 385.8 0C343 0 300 0 257.2 0C214.3 0 171.7 0 128.8 0C86 0 43 0 21.5 0L0 0Z" fill="#3d5e34"></path></svg>