<svg id="visual" xmlns="http://www.w3.org/2000/svg" viewBox="0 0 900 100"><defs><style>.cls-1{fill:#a88b70;}.cls-2{fill:#b6a77e;}.cls-3{fill:#957c64;}.cls-4{fill:#806347;}</style></defs><title>Artboard 1</title><path class="cls-1" d="M0,39H900V0L886.3.7c-13.6.6-41,2-68.3,4.1s-54.7,5.2-81.8,5.5S682,8.3,654.8,9s-54.5,4.3-81.8,4.7S518.3,11,491,8.5,436.3,4,409,6.2s-54.7,8.5-82,8.3S272.3,7.7,245.2,4,191-.3,163.8.7,109.3,4.3,82,6.2,27.3,9,13.7,9.5L0,10Z"/><path class="cls-2" d="M0,39H900V21l-13.7,1c-13.6,1-41,3-68.3,1.2s-54.7-7.5-81.8-7.7-54.2,5.2-81.4,6.7-54.5-.9-81.8-.7-54.7,2.8-82,.8-54.7-8.6-82-9.8-54.7,3.2-82,6a701.89,701.89,0,0,1-81.8,3.8C218,22,191,20,163.8,18.5S109.3,16,82,16.8s-54.7,3.5-68.3,4.9L0,23Z"/><path class="cls-3" d="M0,39H900V20l-13.7-.2c-13.6-.1-41-.5-68.3.5s-54.7,3.4-81.8,5.2-54.2,3.2-81.4,3.2-54.5-1.4-81.8-3.2-54.7-4.2-82-4.2-54.7,2.4-82,4.4-54.7,3.6-82,2.6-54.7-4.6-81.8-5.3-54.2,1.7-81.4,2.7-54.5.6-81.8-.7-54.7-3.7-68.3-4.8L0,19Z"/><path class="cls-4" d="M0,39H900V35l-13.7-1.8c-13.6-1.9-41-5.5-68.3-6.9s-54.7-.3-81.8.4-54.2,1-81.4.6-54.5-1.3-81.8-2-54.7-1-82-1.1-54.7-.2-82,.6-54.7,2.5-82,4.5-54.7,4.4-81.8,5S191,34,163.8,32.5,109.3,29,82,29.3s-54.7,3-68.3,4.4L0,35Z"/></svg>