<svg id="visual" viewBox="0 0 900 100" width="900" height="100" xmlns="http://www.w3.org/2000/svg" xmlns:xlink="http://www.w3.org/1999/xlink" version="1.1"><path d="M0 29L13.7 29.5C27.3 30 54.7 31 82 32.8C109.3 34.7 136.7 37.3 163.8 38.3C191 39.3 218 38.7 245.2 35C272.3 31.3 299.7 24.7 327 24.5C354.3 24.3 381.7 30.7 409 32.8C436.3 35 463.7 33 491 30.5C518.3 28 545.7 25 573 25.3C600.3 25.7 627.7 29.3 654.8 30C682 30.7 709 28.3 736.2 28.7C763.3 29 790.7 32 818 34.2C845.3 36.3 872.7 37.7 886.3 38.3L900 39L900 0L886.3 0C872.7 0 845.3 0 818 0C790.7 0 763.3 0 736.2 0C709 0 682 0 654.8 0C627.7 0 600.3 0 573 0C545.7 0 518.3 0 491 0C463.7 0 436.3 0 409 0C381.7 0 354.3 0 327 0C299.7 0 272.3 0 245.2 0C218 0 191 0 163.8 0C136.7 0 109.3 0 82 0C54.7 0 27.3 0 13.7 0L0 0Z" fill="#a88b70"></path><path d="M0 16L13.7 17.3C27.3 18.7 54.7 21.3 82 22.2C109.3 23 136.7 22 163.8 20.5C191 19 218 17 245.2 16.7C272.3 16.3 299.7 17.7 327 20.5C354.3 23.3 381.7 27.7 409 26.5C436.3 25.3 463.7 18.7 491 16.7C518.3 14.7 545.7 17.3 573 17.5C600.3 17.7 627.7 15.3 654.8 16.8C682 18.3 709 23.7 736.2 23.5C763.3 23.3 790.7 17.7 818 15.8C845.3 14 872.7 16 886.3 17L900 18L900 0L886.3 0C872.7 0 845.3 0 818 0C790.7 0 763.3 0 736.2 0C709 0 682 0 654.8 0C627.7 0 600.3 0 573 0C545.7 0 518.3 0 491 0C463.7 0 436.3 0 409 0C381.7 0 354.3 0 327 0C299.7 0 272.3 0 245.2 0C218 0 191 0 163.8 0C136.7 0 109.3 0 82 0C54.7 0 27.3 0 13.7 0L0 0Z" fill="#b6a77e"></path><path d="M0 20L13.7 18.8C27.3 17.7 54.7 15.3 82 14C109.3 12.7 136.7 12.3 163.8 13.3C191 14.3 218 16.7 245.2 16C272.3 15.3 299.7 11.7 327 10.7C354.3 9.7 381.7 11.3 409 13.3C436.3 15.3 463.7 17.7 491 17.7C518.3 17.7 545.7 15.3 573 13.5C600.3 11.7 627.7 10.3 654.8 10.3C682 10.3 709 11.7 736.2 13.5C763.3 15.3 790.7 17.7 818 18.7C845.3 19.7 872.7 19.3 886.3 19.2L900 19L900 0L886.3 0C872.7 0 845.3 0 818 0C790.7 0 763.3 0 736.2 0C709 0 682 0 654.8 0C627.7 0 600.3 0 573 0C545.7 0 518.3 0 491 0C463.7 0 436.3 0 409 0C381.7 0 354.3 0 327 0C299.7 0 272.3 0 245.2 0C218 0 191 0 163.8 0C136.7 0 109.3 0 82 0C54.7 0 27.3 0 13.7 0L0 0Z" fill="#bdc494"></path><path d="M0 4L13.7 5.3C27.3 6.7 54.7 9.3 82 9.7C109.3 10 136.7 8 163.8 6.5C191 5 218 4 245.2 4.7C272.3 5.3 299.7 7.7 327 9.7C354.3 11.7 381.7 13.3 409 14.2C436.3 15 463.7 15 491 14.8C518.3 14.7 545.7 14.3 573 13.7C600.3 13 627.7 12 654.8 11.7C682 11.3 709 11.7 736.2 12.3C763.3 13 790.7 14 818 12.7C845.3 11.3 872.7 7.7 886.3 5.8L900 4L900 0L886.3 0C872.7 0 845.3 0 818 0C790.7 0 763.3 0 736.2 0C709 0 682 0 654.8 0C627.7 0 600.3 0 573 0C545.7 0 518.3 0 491 0C463.7 0 436.3 0 409 0C381.7 0 354.3 0 327 0C299.7 0 272.3 0 245.2 0C218 0 191 0 163.8 0C136.7 0 109.3 0 82 0C54.7 0 27.3 0 13.7 0L0 0Z" fill="#bee1b2"></path></svg>