<svg id="visual" viewBox="0 0 960 50" width="960" height="50" xmlns="http://www.w3.org/2000/svg" xmlns:xlink="http://www.w3.org/1999/xlink" version="1.1"><path d="M0 24L17.8 23.7C35.7 23.3 71.3 22.7 106.8 22.8C142.3 23 177.7 24 213.2 22.8C248.7 21.7 284.3 18.3 320 15.3C355.7 12.3 391.3 9.7 426.8 11.3C462.3 13 497.7 19 533.2 20.8C568.7 22.7 604.3 20.3 640 17.5C675.7 14.7 711.3 11.3 746.8 12.3C782.3 13.3 817.7 18.7 853.2 19.5C888.7 20.3 924.3 16.7 942.2 14.8L960 13L960 51L942.2 51C924.3 51 888.7 51 853.2 51C817.7 51 782.3 51 746.8 51C711.3 51 675.7 51 640 51C604.3 51 568.7 51 533.2 51C497.7 51 462.3 51 426.8 51C391.3 51 355.7 51 320 51C284.3 51 248.7 51 213.2 51C177.7 51 142.3 51 106.8 51C71.3 51 35.7 51 17.8 51L0 51Z" fill="#cc9d71"></path><path d="M0 22L17.8 23.5C35.7 25 71.3 28 106.8 27.5C142.3 27 177.7 23 213.2 20.7C248.7 18.3 284.3 17.7 320 18.8C355.7 20 391.3 23 426.8 23.7C462.3 24.3 497.7 22.7 533.2 21.2C568.7 19.7 604.3 18.3 640 17.2C675.7 16 711.3 15 746.8 16.5C782.3 18 817.7 22 853.2 23C888.7 24 924.3 22 942.2 21L960 20L960 51L942.2 51C924.3 51 888.7 51 853.2 51C817.7 51 782.3 51 746.8 51C711.3 51 675.7 51 640 51C604.3 51 568.7 51 533.2 51C497.7 51 462.3 51 426.8 51C391.3 51 355.7 51 320 51C284.3 51 248.7 51 213.2 51C177.7 51 142.3 51 106.8 51C71.3 51 35.7 51 17.8 51L0 51Z" fill="#b88e66"></path><path d="M0 35L17.8 32.8C35.7 30.7 71.3 26.3 106.8 26.3C142.3 26.3 177.7 30.7 213.2 31.7C248.7 32.7 284.3 30.3 320 28.2C355.7 26 391.3 24 426.8 24.3C462.3 24.7 497.7 27.3 533.2 28.2C568.7 29 604.3 28 640 27C675.7 26 711.3 25 746.8 24.5C782.3 24 817.7 24 853.2 23.5C888.7 23 924.3 22 942.2 21.5L960 21L960 51L942.2 51C924.3 51 888.7 51 853.2 51C817.7 51 782.3 51 746.8 51C711.3 51 675.7 51 640 51C604.3 51 568.7 51 533.2 51C497.7 51 462.3 51 426.8 51C391.3 51 355.7 51 320 51C284.3 51 248.7 51 213.2 51C177.7 51 142.3 51 106.8 51C71.3 51 35.7 51 17.8 51L0 51Z" fill="#a57f5c"></path><path d="M0 32L17.8 31.3C35.7 30.7 71.3 29.3 106.8 30.7C142.3 32 177.7 36 213.2 36.8C248.7 37.7 284.3 35.3 320 34.8C355.7 34.3 391.3 35.7 426.8 36C462.3 36.3 497.7 35.7 533.2 34.3C568.7 33 604.3 31 640 31.3C675.7 31.7 711.3 34.3 746.8 34.3C782.3 34.3 817.7 31.7 853.2 32.2C888.7 32.7 924.3 36.3 942.2 38.2L960 40L960 51L942.2 51C924.3 51 888.7 51 853.2 51C817.7 51 782.3 51 746.8 51C711.3 51 675.7 51 640 51C604.3 51 568.7 51 533.2 51C497.7 51 462.3 51 426.8 51C391.3 51 355.7 51 320 51C284.3 51 248.7 51 213.2 51C177.7 51 142.3 51 106.8 51C71.3 51 35.7 51 17.8 51L0 51Z" fill="#927151"></path><path d="M0 42L17.8 42C35.7 42 71.3 42 106.8 42.2C142.3 42.3 177.7 42.7 213.2 42.3C248.7 42 284.3 41 320 41.3C355.7 41.7 391.3 43.3 426.8 43.3C462.3 43.3 497.7 41.7 533.2 40.3C568.7 39 604.3 38 640 37.3C675.7 36.7 711.3 36.3 746.8 36.2C782.3 36 817.7 36 853.2 36.2C888.7 36.3 924.3 36.7 942.2 36.8L960 37L960 51L942.2 51C924.3 51 888.7 51 853.2 51C817.7 51 782.3 51 746.8 51C711.3 51 675.7 51 640 51C604.3 51 568.7 51 533.2 51C497.7 51 462.3 51 426.8 51C391.3 51 355.7 51 320 51C284.3 51 248.7 51 213.2 51C177.7 51 142.3 51 106.8 51C71.3 51 35.7 51 17.8 51L0 51Z" fill="#806347"></path></svg>