<svg id="visual" viewBox="0 0 960 50" width="960" height="50" xmlns="http://www.w3.org/2000/svg" xmlns:xlink="http://www.w3.org/1999/xlink" version="1.1"><path d="M0 29L10.7 29.8C21.3 30.7 42.7 32.3 64 31.2C85.3 30 106.7 26 128 25.5C149.3 25 170.7 28 192 27.7C213.3 27.3 234.7 23.7 256 24C277.3 24.3 298.7 28.7 320 31.5C341.3 34.3 362.7 35.7 384 33.8C405.3 32 426.7 27 448 24.5C469.3 22 490.7 22 512 23.7C533.3 25.3 554.7 28.7 576 28.2C597.3 27.7 618.7 23.3 640 21.5C661.3 19.7 682.7 20.3 704 20.2C725.3 20 746.7 19 768 19C789.3 19 810.7 20 832 22.3C853.3 24.7 874.7 28.3 896 27.7C917.3 27 938.7 22 949.3 19.5L960 17L960 0L949.3 0C938.7 0 917.3 0 896 0C874.7 0 853.3 0 832 0C810.7 0 789.3 0 768 0C746.7 0 725.3 0 704 0C682.7 0 661.3 0 640 0C618.7 0 597.3 0 576 0C554.7 0 533.3 0 512 0C490.7 0 469.3 0 448 0C426.7 0 405.3 0 384 0C362.7 0 341.3 0 320 0C298.7 0 277.3 0 256 0C234.7 0 213.3 0 192 0C170.7 0 149.3 0 128 0C106.7 0 85.3 0 64 0C42.7 0 21.3 0 10.7 0L0 0Z" fill="#93ae8b"></path><path d="M0 22L10.7 20.8C21.3 19.7 42.7 17.3 64 16.8C85.3 16.3 106.7 17.7 128 17.7C149.3 17.7 170.7 16.3 192 15.3C213.3 14.3 234.7 13.7 256 15.5C277.3 17.3 298.7 21.7 320 21.8C341.3 22 362.7 18 384 17.2C405.3 16.3 426.7 18.7 448 19.3C469.3 20 490.7 19 512 18.8C533.3 18.7 554.7 19.3 576 20.3C597.3 21.3 618.7 22.7 640 23.2C661.3 23.7 682.7 23.3 704 23.7C725.3 24 746.7 25 768 23.7C789.3 22.3 810.7 18.7 832 17.3C853.3 16 874.7 17 896 19.2C917.3 21.3 938.7 24.7 949.3 26.3L960 28L960 0L949.3 0C938.7 0 917.3 0 896 0C874.7 0 853.3 0 832 0C810.7 0 789.3 0 768 0C746.7 0 725.3 0 704 0C682.7 0 661.3 0 640 0C618.7 0 597.3 0 576 0C554.7 0 533.3 0 512 0C490.7 0 469.3 0 448 0C426.7 0 405.3 0 384 0C362.7 0 341.3 0 320 0C298.7 0 277.3 0 256 0C234.7 0 213.3 0 192 0C170.7 0 149.3 0 128 0C106.7 0 85.3 0 64 0C42.7 0 21.3 0 10.7 0L0 0Z" fill="#7c9b72"></path><path d="M0 14L10.7 14.5C21.3 15 42.7 16 64 17C85.3 18 106.7 19 128 17.7C149.3 16.3 170.7 12.7 192 12.5C213.3 12.3 234.7 15.7 256 15.5C277.3 15.3 298.7 11.7 320 11.3C341.3 11 362.7 14 384 15.8C405.3 17.7 426.7 18.3 448 18.8C469.3 19.3 490.7 19.7 512 20C533.3 20.3 554.7 20.7 576 19.8C597.3 19 618.7 17 640 16.2C661.3 15.3 682.7 15.7 704 16.3C725.3 17 746.7 18 768 17.5C789.3 17 810.7 15 832 13.3C853.3 11.7 874.7 10.3 896 10.5C917.3 10.7 938.7 12.3 949.3 13.2L960 14L960 0L949.3 0C938.7 0 917.3 0 896 0C874.7 0 853.3 0 832 0C810.7 0 789.3 0 768 0C746.7 0 725.3 0 704 0C682.7 0 661.3 0 640 0C618.7 0 597.3 0 576 0C554.7 0 533.3 0 512 0C490.7 0 469.3 0 448 0C426.7 0 405.3 0 384 0C362.7 0 341.3 0 320 0C298.7 0 277.3 0 256 0C234.7 0 213.3 0 192 0C170.7 0 149.3 0 128 0C106.7 0 85.3 0 64 0C42.7 0 21.3 0 10.7 0L0 0Z" fill="#64885a"></path><path d="M0 8L10.7 8.2C21.3 8.3 42.7 8.7 64 8.2C85.3 7.7 106.7 6.3 128 6.7C149.3 7 170.7 9 192 9.5C213.3 10 234.7 9 256 9.3C277.3 9.7 298.7 11.3 320 11C341.3 10.7 362.7 8.3 384 7.7C405.3 7 426.7 8 448 7.5C469.3 7 490.7 5 512 5.3C533.3 5.7 554.7 8.3 576 9C597.3 9.7 618.7 8.3 640 7.7C661.3 7 682.7 7 704 7.3C725.3 7.7 746.7 8.3 768 9.2C789.3 10 810.7 11 832 10.5C853.3 10 874.7 8 896 7.2C917.3 6.3 938.7 6.7 949.3 6.8L960 7L960 0L949.3 0C938.7 0 917.3 0 896 0C874.7 0 853.3 0 832 0C810.7 0 789.3 0 768 0C746.7 0 725.3 0 704 0C682.7 0 661.3 0 640 0C618.7 0 597.3 0 576 0C554.7 0 533.3 0 512 0C490.7 0 469.3 0 448 0C426.7 0 405.3 0 384 0C362.7 0 341.3 0 320 0C298.7 0 277.3 0 256 0C234.7 0 213.3 0 192 0C170.7 0 149.3 0 128 0C106.7 0 85.3 0 64 0C42.7 0 21.3 0 10.7 0L0 0Z" fill="#4d7542"></path></svg>