<svg id="visual" viewBox="0 0 900 300" width="900" height="300" xmlns="http://www.w3.org/2000/svg" xmlns:xlink="http://www.w3.org/1999/xlink" version="1.1"><path d="M0 90L11.5 89.2C23 88.3 46 86.7 69 81.8C92 77 115 69 138.2 65.7C161.3 62.3 184.7 63.7 207.8 66.5C231 69.3 254 73.7 277 81.8C300 90 323 102 346 109.3C369 116.7 392 119.3 415.2 115.3C438.3 111.3 461.7 100.7 484.8 95.3C508 90 531 90 554 93.7C577 97.3 600 104.7 623 101.3C646 98 669 84 692.2 80.8C715.3 77.7 738.7 85.3 761.8 85.3C785 85.3 808 77.7 831 74.3C854 71 877 72 888.5 72.5L900 73L900 0L888.5 0C877 0 854 0 831 0C808 0 785 0 761.8 0C738.7 0 715.3 0 692.2 0C669 0 646 0 623 0C600 0 577 0 554 0C531 0 508 0 484.8 0C461.7 0 438.3 0 415.2 0C392 0 369 0 346 0C323 0 300 0 277 0C254 0 231 0 207.8 0C184.7 0 161.3 0 138.2 0C115 0 92 0 69 0C46 0 23 0 11.5 0L0 0Z" fill="#bee1b2"></path><path d="M0 72L11.5 75.5C23 79 46 86 69 87.3C92 88.7 115 84.3 138.2 80.8C161.3 77.3 184.7 74.7 207.8 73C231 71.3 254 70.7 277 75.2C300 79.7 323 89.3 346 89.7C369 90 392 81 415.2 81.3C438.3 81.7 461.7 91.3 484.8 88.3C508 85.3 531 69.7 554 70.7C577 71.7 600 89.3 623 92.5C646 95.7 669 84.3 692.2 83.5C715.3 82.7 738.7 92.3 761.8 89C785 85.7 808 69.3 831 63.5C854 57.7 877 62.3 888.5 64.7L900 67L900 0L888.5 0C877 0 854 0 831 0C808 0 785 0 761.8 0C738.7 0 715.3 0 692.2 0C669 0 646 0 623 0C600 0 577 0 554 0C531 0 508 0 484.8 0C461.7 0 438.3 0 415.2 0C392 0 369 0 346 0C323 0 300 0 277 0C254 0 231 0 207.8 0C184.7 0 161.3 0 138.2 0C115 0 92 0 69 0C46 0 23 0 11.5 0L0 0Z" fill="#a6cb9a"></path><path d="M0 43L11.5 42.8C23 42.7 46 42.3 69 44C92 45.7 115 49.3 138.2 54.2C161.3 59 184.7 65 207.8 70.3C231 75.7 254 80.3 277 80.3C300 80.3 323 75.7 346 77.2C369 78.7 392 86.3 415.2 84.3C438.3 82.3 461.7 70.7 484.8 67.2C508 63.7 531 68.3 554 67.8C577 67.3 600 61.7 623 57.8C646 54 669 52 692.2 56.5C715.3 61 738.7 72 761.8 71.8C785 71.7 808 60.3 831 61.2C854 62 877 75 888.5 81.5L900 88L900 0L888.5 0C877 0 854 0 831 0C808 0 785 0 761.8 0C738.7 0 715.3 0 692.2 0C669 0 646 0 623 0C600 0 577 0 554 0C531 0 508 0 484.8 0C461.7 0 438.3 0 415.2 0C392 0 369 0 346 0C323 0 300 0 277 0C254 0 231 0 207.8 0C184.7 0 161.3 0 138.2 0C115 0 92 0 69 0C46 0 23 0 11.5 0L0 0Z" fill="#8fb583"></path><path d="M0 43L11.5 43.2C23 43.3 46 43.7 69 48.7C92 53.7 115 63.3 138.2 60.5C161.3 57.7 184.7 42.3 207.8 40.7C231 39 254 51 277 53.3C300 55.7 323 48.3 346 49C369 49.7 392 58.3 415.2 61.8C438.3 65.3 461.7 63.7 484.8 64.8C508 66 531 70 554 69.2C577 68.3 600 62.7 623 56.3C646 50 669 43 692.2 44C715.3 45 738.7 54 761.8 56C785 58 808 53 831 47.3C854 41.7 877 35.3 888.5 32.2L900 29L900 0L888.5 0C877 0 854 0 831 0C808 0 785 0 761.8 0C738.7 0 715.3 0 692.2 0C669 0 646 0 623 0C600 0 577 0 554 0C531 0 508 0 484.8 0C461.7 0 438.3 0 415.2 0C392 0 369 0 346 0C323 0 300 0 277 0C254 0 231 0 207.8 0C184.7 0 161.3 0 138.2 0C115 0 92 0 69 0C46 0 23 0 11.5 0L0 0Z" fill="#799f6d"></path><path d="M0 38L11.5 40.5C23 43 46 48 69 47.5C92 47 115 41 138.2 36C161.3 31 184.7 27 207.8 28.3C231 29.7 254 36.3 277 40C300 43.7 323 44.3 346 40.3C369 36.3 392 27.7 415.2 27C438.3 26.3 461.7 33.7 484.8 39.5C508 45.3 531 49.7 554 49.8C577 50 600 46 623 40.5C646 35 669 28 692.2 27.5C715.3 27 738.7 33 761.8 32.5C785 32 808 25 831 24.8C854 24.7 877 31.3 888.5 34.7L900 38L900 0L888.5 0C877 0 854 0 831 0C808 0 785 0 761.8 0C738.7 0 715.3 0 692.2 0C669 0 646 0 623 0C600 0 577 0 554 0C531 0 508 0 484.8 0C461.7 0 438.3 0 415.2 0C392 0 369 0 346 0C323 0 300 0 277 0C254 0 231 0 207.8 0C184.7 0 161.3 0 138.2 0C115 0 92 0 69 0C46 0 23 0 11.5 0L0 0Z" fill="#638a57"></path><path d="M0 10L11.5 10.5C23 11 46 12 69 13.2C92 14.3 115 15.7 138.2 16.5C161.3 17.3 184.7 17.7 207.8 19.8C231 22 254 26 277 24.7C300 23.3 323 16.7 346 14.5C369 12.3 392 14.7 415.2 16.8C438.3 19 461.7 21 484.8 21.7C508 22.3 531 21.7 554 20.8C577 20 600 19 623 18.5C646 18 669 18 692.2 16.5C715.3 15 738.7 12 761.8 12.5C785 13 808 17 831 20.7C854 24.3 877 27.7 888.5 29.3L900 31L900 0L888.5 0C877 0 854 0 831 0C808 0 785 0 761.8 0C738.7 0 715.3 0 692.2 0C669 0 646 0 623 0C600 0 577 0 554 0C531 0 508 0 484.8 0C461.7 0 438.3 0 415.2 0C392 0 369 0 346 0C323 0 300 0 277 0C254 0 231 0 207.8 0C184.7 0 161.3 0 138.2 0C115 0 92 0 69 0C46 0 23 0 11.5 0L0 0Z" fill="#4d7542"></path></svg>