<svg id="visual" viewBox="0 0 900 600" width="900" height="600" xmlns="http://www.w3.org/2000/svg" xmlns:xlink="http://www.w3.org/1999/xlink" version="1.1"><g stroke-width="1" stroke-linejoin="bevel"><path d="M434 338L560 304L481 268Z" fill="#35552c" stroke="#35552c"></path><path d="M434 338L539 388L560 304Z" fill="#456d39" stroke="#456d39"></path><path d="M560 304L531 224L481 268Z" fill="#4d7940" stroke="#4d7940"></path><path d="M563 495L581 417L539 388Z" fill="#5e924e" stroke="#5e924e"></path><path d="M539 388L581 417L560 304Z" fill="#6fac5c" stroke="#6fac5c"></path><path d="M434 338L418 462L539 388Z" fill="#3d6132" stroke="#3d6132"></path><path d="M385 414L418 462L434 338Z" fill="#5e924e" stroke="#5e924e"></path><path d="M663 291L589 192L560 304Z" fill="#5e924e" stroke="#5e924e"></path><path d="M560 304L589 192L531 224Z" fill="#669f55" stroke="#669f55"></path><path d="M581 417L663 291L560 304Z" fill="#35552c" stroke="#35552c"></path><path d="M531 224L431 178L481 268Z" fill="#35552c" stroke="#35552c"></path><path d="M481 268L431 178L434 338Z" fill="#6fac5c" stroke="#6fac5c"></path><path d="M434 338L322 394L385 414Z" fill="#78b963" stroke="#78b963"></path><path d="M497 114L431 178L531 224Z" fill="#6fac5c" stroke="#6fac5c"></path><path d="M530 517L563 495L539 388Z" fill="#669f55" stroke="#669f55"></path><path d="M581 417L724 388L663 291Z" fill="#5e924e" stroke="#5e924e"></path><path d="M418 462L530 517L539 388Z" fill="#558547" stroke="#558547"></path><path d="M279 314L322 394L434 338Z" fill="#456d39" stroke="#456d39"></path><path d="M385 414L289 531L418 462Z" fill="#6fac5c" stroke="#6fac5c"></path><path d="M589 192L497 114L531 224Z" fill="#4d7940" stroke="#4d7940"></path><path d="M319 175L434 338L431 178Z" fill="#669f55" stroke="#669f55"></path><path d="M319 175L279 314L434 338Z" fill="#558547" stroke="#558547"></path><path d="M712 492L724 388L581 417Z" fill="#78b963" stroke="#78b963"></path><path d="M712 492L581 417L563 495Z" fill="#2d4a25" stroke="#2d4a25"></path><path d="M405 106L319 175L431 178Z" fill="#456d39" stroke="#456d39"></path><path d="M663 291L688 178L589 192Z" fill="#6fac5c" stroke="#6fac5c"></path><path d="M589 192L596 74L497 114Z" fill="#263f1f" stroke="#263f1f"></path><path d="M811 234L688 178L663 291Z" fill="#456d39" stroke="#456d39"></path><path d="M497 114L405 106L431 178Z" fill="#78b963" stroke="#78b963"></path><path d="M632 600L712 492L563 495Z" fill="#558547" stroke="#558547"></path><path d="M813 394L768 335L724 388Z" fill="#78b963" stroke="#78b963"></path><path d="M724 388L768 335L663 291Z" fill="#6fac5c" stroke="#6fac5c"></path><path d="M418 462L491 600L530 517Z" fill="#35552c" stroke="#35552c"></path><path d="M530 517L632 600L563 495Z" fill="#6fac5c" stroke="#6fac5c"></path><path d="M361 600L491 600L418 462Z" fill="#456d39" stroke="#456d39"></path><path d="M660 106L596 74L589 192Z" fill="#35552c" stroke="#35552c"></path><path d="M497 114L482 0L405 106Z" fill="#6fac5c" stroke="#6fac5c"></path><path d="M765 113L660 106L688 178Z" fill="#5e924e" stroke="#5e924e"></path><path d="M688 178L660 106L589 192Z" fill="#558547" stroke="#558547"></path><path d="M185 371L289 531L322 394Z" fill="#558547" stroke="#558547"></path><path d="M322 394L289 531L385 414Z" fill="#6fac5c" stroke="#6fac5c"></path><path d="M491 600L632 600L530 517Z" fill="#3d6132" stroke="#3d6132"></path><path d="M289 531L361 600L418 462Z" fill="#3d6132" stroke="#3d6132"></path><path d="M319 175L216 190L279 314Z" fill="#3d6132" stroke="#3d6132"></path><path d="M279 314L185 371L322 394Z" fill="#669f55" stroke="#669f55"></path><path d="M293 82L216 190L319 175Z" fill="#6fac5c" stroke="#6fac5c"></path><path d="M173 316L185 371L279 314Z" fill="#5e924e" stroke="#5e924e"></path><path d="M696 600L768 504L712 492Z" fill="#2d4a25" stroke="#2d4a25"></path><path d="M712 492L768 504L724 388Z" fill="#35552c" stroke="#35552c"></path><path d="M768 504L813 394L724 388Z" fill="#3d6132" stroke="#3d6132"></path><path d="M768 335L811 234L663 291Z" fill="#558547" stroke="#558547"></path><path d="M401 0L293 82L405 106Z" fill="#456d39" stroke="#456d39"></path><path d="M405 106L293 82L319 175Z" fill="#3d6132" stroke="#3d6132"></path><path d="M900 329L811 234L768 335Z" fill="#35552c" stroke="#35552c"></path><path d="M216 190L173 316L279 314Z" fill="#78b963" stroke="#78b963"></path><path d="M588 0L482 0L596 74Z" fill="#35552c" stroke="#35552c"></path><path d="M596 74L482 0L497 114Z" fill="#3d6132" stroke="#3d6132"></path><path d="M632 600L696 600L712 492Z" fill="#456d39" stroke="#456d39"></path><path d="M712 0L588 0L596 74Z" fill="#669f55" stroke="#669f55"></path><path d="M712 0L596 74L660 106Z" fill="#558547" stroke="#558547"></path><path d="M811 234L765 113L688 178Z" fill="#4d7940" stroke="#4d7940"></path><path d="M482 0L401 0L405 106Z" fill="#5e924e" stroke="#5e924e"></path><path d="M204 600L280 600L289 531Z" fill="#558547" stroke="#558547"></path><path d="M289 531L280 600L361 600Z" fill="#2d4a25" stroke="#2d4a25"></path><path d="M123 495L177 530L185 371Z" fill="#263f1f" stroke="#263f1f"></path><path d="M185 371L177 530L289 531Z" fill="#2d4a25" stroke="#2d4a25"></path><path d="M401 0L298 0L293 82Z" fill="#35552c" stroke="#35552c"></path><path d="M293 82L188 91L216 190Z" fill="#35552c" stroke="#35552c"></path><path d="M765 113L712 0L660 106Z" fill="#263f1f" stroke="#263f1f"></path><path d="M216 190L110 171L173 316Z" fill="#78b963" stroke="#78b963"></path><path d="M298 0L188 91L293 82Z" fill="#35552c" stroke="#35552c"></path><path d="M177 530L204 600L289 531Z" fill="#263f1f" stroke="#263f1f"></path><path d="M900 393L900 329L813 394Z" fill="#263f1f" stroke="#263f1f"></path><path d="M813 394L900 329L768 335Z" fill="#35552c" stroke="#35552c"></path><path d="M811 234L900 162L765 113Z" fill="#6fac5c" stroke="#6fac5c"></path><path d="M765 113L817 0L712 0Z" fill="#35552c" stroke="#35552c"></path><path d="M900 393L813 394L900 477Z" fill="#456d39" stroke="#456d39"></path><path d="M900 477L813 394L768 504Z" fill="#669f55" stroke="#669f55"></path><path d="M86 380L123 495L185 371Z" fill="#456d39" stroke="#456d39"></path><path d="M177 530L70 600L204 600Z" fill="#3d6132" stroke="#3d6132"></path><path d="M86 380L185 371L173 316Z" fill="#2d4a25" stroke="#2d4a25"></path><path d="M68 267L86 380L173 316Z" fill="#6fac5c" stroke="#6fac5c"></path><path d="M696 600L823 600L768 504Z" fill="#3d6132" stroke="#3d6132"></path><path d="M188 91L110 171L216 190Z" fill="#35552c" stroke="#35552c"></path><path d="M823 600L900 477L768 504Z" fill="#3d6132" stroke="#3d6132"></path><path d="M900 329L900 162L811 234Z" fill="#3d6132" stroke="#3d6132"></path><path d="M110 171L68 267L173 316Z" fill="#6fac5c" stroke="#6fac5c"></path><path d="M900 162L900 125L765 113Z" fill="#669f55" stroke="#669f55"></path><path d="M900 125L817 0L765 113Z" fill="#2d4a25" stroke="#2d4a25"></path><path d="M188 91L92 103L110 171Z" fill="#6fac5c" stroke="#6fac5c"></path><path d="M0 198L0 270L68 267Z" fill="#6fac5c" stroke="#6fac5c"></path><path d="M163 0L92 103L188 91Z" fill="#263f1f" stroke="#263f1f"></path><path d="M298 0L163 0L188 91Z" fill="#35552c" stroke="#35552c"></path><path d="M823 600L900 600L900 477Z" fill="#558547" stroke="#558547"></path><path d="M0 198L68 267L110 171Z" fill="#2d4a25" stroke="#2d4a25"></path><path d="M68 267L0 270L86 380Z" fill="#5e924e" stroke="#5e924e"></path><path d="M86 380L0 407L123 495Z" fill="#78b963" stroke="#78b963"></path><path d="M0 270L0 407L86 380Z" fill="#5e924e" stroke="#5e924e"></path><path d="M123 495L70 600L177 530Z" fill="#456d39" stroke="#456d39"></path><path d="M0 501L70 600L123 495Z" fill="#2d4a25" stroke="#2d4a25"></path><path d="M92 103L0 198L110 171Z" fill="#558547" stroke="#558547"></path><path d="M0 70L0 198L92 103Z" fill="#3d6132" stroke="#3d6132"></path><path d="M900 125L900 0L817 0Z" fill="#558547" stroke="#558547"></path><path d="M0 407L0 501L123 495Z" fill="#456d39" stroke="#456d39"></path><path d="M163 0L66 0L92 103Z" fill="#78b963" stroke="#78b963"></path><path d="M66 0L0 70L92 103Z" fill="#6fac5c" stroke="#6fac5c"></path><path d="M0 501L0 600L70 600Z" fill="#558547" stroke="#558547"></path><path d="M66 0L0 0L0 70Z" fill="#2d4a25" stroke="#2d4a25"></path></g></svg>