<svg id="visual" viewBox="0 0 960 80" width="960" height="80" xmlns="http://www.w3.org/2000/svg" xmlns:xlink="http://www.w3.org/1999/xlink" version="1.1"><path d="M0 53L10.7 51C21.3 49 42.7 45 64 46.3C85.3 47.7 106.7 54.3 128 55.8C149.3 57.3 170.7 53.7 192 51C213.3 48.3 234.7 46.7 256 44.5C277.3 42.3 298.7 39.7 320 40.8C341.3 42 362.7 47 384 50C405.3 53 426.7 54 448 54.7C469.3 55.3 490.7 55.7 512 52.7C533.3 49.7 554.7 43.3 576 39.3C597.3 35.3 618.7 33.7 640 35.7C661.3 37.7 682.7 43.3 704 47.3C725.3 51.3 746.7 53.7 768 50.8C789.3 48 810.7 40 832 37.2C853.3 34.3 874.7 36.7 896 41.2C917.3 45.7 938.7 52.3 949.3 55.7L960 59L960 0L949.3 0C938.7 0 917.3 0 896 0C874.7 0 853.3 0 832 0C810.7 0 789.3 0 768 0C746.7 0 725.3 0 704 0C682.7 0 661.3 0 640 0C618.7 0 597.3 0 576 0C554.7 0 533.3 0 512 0C490.7 0 469.3 0 448 0C426.7 0 405.3 0 384 0C362.7 0 341.3 0 320 0C298.7 0 277.3 0 256 0C234.7 0 213.3 0 192 0C170.7 0 149.3 0 128 0C106.7 0 85.3 0 64 0C42.7 0 21.3 0 10.7 0L0 0Z" fill="#93ae8b"></path><path d="M0 41L10.7 39.2C21.3 37.3 42.7 33.7 64 34.7C85.3 35.7 106.7 41.3 128 41C149.3 40.7 170.7 34.3 192 33.2C213.3 32 234.7 36 256 38C277.3 40 298.7 40 320 41.3C341.3 42.7 362.7 45.3 384 46.8C405.3 48.3 426.7 48.7 448 48.7C469.3 48.7 490.7 48.3 512 45.3C533.3 42.3 554.7 36.7 576 36C597.3 35.3 618.7 39.7 640 39.7C661.3 39.7 682.7 35.3 704 34.8C725.3 34.3 746.7 37.7 768 41.2C789.3 44.7 810.7 48.3 832 46C853.3 43.7 874.7 35.3 896 33.3C917.3 31.3 938.7 35.7 949.3 37.8L960 40L960 0L949.3 0C938.7 0 917.3 0 896 0C874.7 0 853.3 0 832 0C810.7 0 789.3 0 768 0C746.7 0 725.3 0 704 0C682.7 0 661.3 0 640 0C618.7 0 597.3 0 576 0C554.7 0 533.3 0 512 0C490.7 0 469.3 0 448 0C426.7 0 405.3 0 384 0C362.7 0 341.3 0 320 0C298.7 0 277.3 0 256 0C234.7 0 213.3 0 192 0C170.7 0 149.3 0 128 0C106.7 0 85.3 0 64 0C42.7 0 21.3 0 10.7 0L0 0Z" fill="#87a47f"></path><path d="M0 36L10.7 36C21.3 36 42.7 36 64 34.3C85.3 32.7 106.7 29.3 128 28C149.3 26.7 170.7 27.3 192 30C213.3 32.7 234.7 37.3 256 37.2C277.3 37 298.7 32 320 29C341.3 26 362.7 25 384 27.8C405.3 30.7 426.7 37.3 448 40.3C469.3 43.3 490.7 42.7 512 41.7C533.3 40.7 554.7 39.3 576 37.2C597.3 35 618.7 32 640 30.3C661.3 28.7 682.7 28.3 704 30.2C725.3 32 746.7 36 768 35.8C789.3 35.7 810.7 31.3 832 29C853.3 26.7 874.7 26.3 896 25.8C917.3 25.3 938.7 24.7 949.3 24.3L960 24L960 0L949.3 0C938.7 0 917.3 0 896 0C874.7 0 853.3 0 832 0C810.7 0 789.3 0 768 0C746.7 0 725.3 0 704 0C682.7 0 661.3 0 640 0C618.7 0 597.3 0 576 0C554.7 0 533.3 0 512 0C490.7 0 469.3 0 448 0C426.7 0 405.3 0 384 0C362.7 0 341.3 0 320 0C298.7 0 277.3 0 256 0C234.7 0 213.3 0 192 0C170.7 0 149.3 0 128 0C106.7 0 85.3 0 64 0C42.7 0 21.3 0 10.7 0L0 0Z" fill="#7c9b72"></path><path d="M0 24L10.7 25.8C21.3 27.7 42.7 31.3 64 30.3C85.3 29.3 106.7 23.7 128 22.8C149.3 22 170.7 26 192 27C213.3 28 234.7 26 256 26.3C277.3 26.7 298.7 29.3 320 29C341.3 28.7 362.7 25.3 384 25.7C405.3 26 426.7 30 448 31.8C469.3 33.7 490.7 33.3 512 32.7C533.3 32 554.7 31 576 28.8C597.3 26.7 618.7 23.3 640 22.7C661.3 22 682.7 24 704 24.7C725.3 25.3 746.7 24.7 768 25C789.3 25.3 810.7 26.7 832 28.2C853.3 29.7 874.7 31.3 896 32.7C917.3 34 938.7 35 949.3 35.5L960 36L960 0L949.3 0C938.7 0 917.3 0 896 0C874.7 0 853.3 0 832 0C810.7 0 789.3 0 768 0C746.7 0 725.3 0 704 0C682.7 0 661.3 0 640 0C618.7 0 597.3 0 576 0C554.7 0 533.3 0 512 0C490.7 0 469.3 0 448 0C426.7 0 405.3 0 384 0C362.7 0 341.3 0 320 0C298.7 0 277.3 0 256 0C234.7 0 213.3 0 192 0C170.7 0 149.3 0 128 0C106.7 0 85.3 0 64 0C42.7 0 21.3 0 10.7 0L0 0Z" fill="#709166"></path><path d="M0 24L10.7 22.3C21.3 20.7 42.7 17.3 64 15.5C85.3 13.7 106.7 13.3 128 13.2C149.3 13 170.7 13 192 14C213.3 15 234.7 17 256 17C277.3 17 298.7 15 320 16.5C341.3 18 362.7 23 384 23.5C405.3 24 426.7 20 448 18.7C469.3 17.3 490.7 18.7 512 20C533.3 21.3 554.7 22.7 576 22.8C597.3 23 618.7 22 640 20C661.3 18 682.7 15 704 15.5C725.3 16 746.7 20 768 20.7C789.3 21.3 810.7 18.7 832 19.2C853.3 19.7 874.7 23.3 896 24C917.3 24.7 938.7 22.3 949.3 21.2L960 20L960 0L949.3 0C938.7 0 917.3 0 896 0C874.7 0 853.3 0 832 0C810.7 0 789.3 0 768 0C746.7 0 725.3 0 704 0C682.7 0 661.3 0 640 0C618.7 0 597.3 0 576 0C554.7 0 533.3 0 512 0C490.7 0 469.3 0 448 0C426.7 0 405.3 0 384 0C362.7 0 341.3 0 320 0C298.7 0 277.3 0 256 0C234.7 0 213.3 0 192 0C170.7 0 149.3 0 128 0C106.7 0 85.3 0 64 0C42.7 0 21.3 0 10.7 0L0 0Z" fill="#64885a"></path><path d="M0 14L10.7 15C21.3 16 42.7 18 64 17C85.3 16 106.7 12 128 11.7C149.3 11.3 170.7 14.7 192 16.3C213.3 18 234.7 18 256 16.5C277.3 15 298.7 12 320 10.7C341.3 9.3 362.7 9.7 384 11.7C405.3 13.7 426.7 17.3 448 18.8C469.3 20.3 490.7 19.7 512 19.2C533.3 18.7 554.7 18.3 576 18.7C597.3 19 618.7 20 640 18.3C661.3 16.7 682.7 12.3 704 11.3C725.3 10.3 746.7 12.7 768 12.7C789.3 12.7 810.7 10.3 832 9.3C853.3 8.3 874.7 8.7 896 9C917.3 9.3 938.7 9.7 949.3 9.8L960 10L960 0L949.3 0C938.7 0 917.3 0 896 0C874.7 0 853.3 0 832 0C810.7 0 789.3 0 768 0C746.7 0 725.3 0 704 0C682.7 0 661.3 0 640 0C618.7 0 597.3 0 576 0C554.7 0 533.3 0 512 0C490.7 0 469.3 0 448 0C426.7 0 405.3 0 384 0C362.7 0 341.3 0 320 0C298.7 0 277.3 0 256 0C234.7 0 213.3 0 192 0C170.7 0 149.3 0 128 0C106.7 0 85.3 0 64 0C42.7 0 21.3 0 10.7 0L0 0Z" fill="#597e4e"></path><path d="M0 8L10.7 7.8C21.3 7.7 42.7 7.3 64 7.5C85.3 7.7 106.7 8.3 128 8.8C149.3 9.3 170.7 9.7 192 8.7C213.3 7.7 234.7 5.3 256 5.5C277.3 5.7 298.7 8.3 320 8.8C341.3 9.3 362.7 7.7 384 7.7C405.3 7.7 426.7 9.3 448 10.5C469.3 11.7 490.7 12.3 512 11.7C533.3 11 554.7 9 576 7.7C597.3 6.3 618.7 5.7 640 5.8C661.3 6 682.7 7 704 8C725.3 9 746.7 10 768 9.5C789.3 9 810.7 7 832 7.2C853.3 7.3 874.7 9.7 896 10.3C917.3 11 938.7 10 949.3 9.5L960 9L960 0L949.3 0C938.7 0 917.3 0 896 0C874.7 0 853.3 0 832 0C810.7 0 789.3 0 768 0C746.7 0 725.3 0 704 0C682.7 0 661.3 0 640 0C618.7 0 597.3 0 576 0C554.7 0 533.3 0 512 0C490.7 0 469.3 0 448 0C426.7 0 405.3 0 384 0C362.7 0 341.3 0 320 0C298.7 0 277.3 0 256 0C234.7 0 213.3 0 192 0C170.7 0 149.3 0 128 0C106.7 0 85.3 0 64 0C42.7 0 21.3 0 10.7 0L0 0Z" fill="#4d7542"></path></svg>