<svg id="visual" viewBox="0 0 900 100" width="900" height="100" xmlns="http://www.w3.org/2000/svg" xmlns:xlink="http://www.w3.org/1999/xlink" version="1.1"><path d="M0 28L21.5 30.7C43 33.3 86 38.7 128.8 41.3C171.7 44 214.3 44 257.2 43.7C300 43.3 343 42.7 385.8 40.3C428.7 38 471.3 34 514.2 29.7C557 25.3 600 20.7 642.8 18.5C685.7 16.3 728.3 16.7 771.2 22.2C814 27.7 857 38.3 878.5 43.7L900 49L900 0L878.5 0C857 0 814 0 771.2 0C728.3 0 685.7 0 642.8 0C600 0 557 0 514.2 0C471.3 0 428.7 0 385.8 0C343 0 300 0 257.2 0C214.3 0 171.7 0 128.8 0C86 0 43 0 21.5 0L0 0Z" fill="#BEE1B2" stroke-linecap="round" stroke-linejoin="miter"></path></svg>